<svg xmlns="http://www.w3.org/2000/svg" width="1003" height="322" viewBox="0 0 1003 322" fill="none"><path d="M 308 67.5 L 289 67.5 L 288.5 67 L 288.5 65 L 289.5 64 L 289.5 61 L 290.5 60 L 290.5 57 L 291.5 56 L 291.5 53 L 292.5 52 L 292.5 49 L 293.5 48 L 293.5 45 L 294.5 44 L 294.5 41 L 295.5 40 L 295.5 37 L 296.5 36 L 296.5 33 L 297.5 32 L 297.5 29 L 298.5 28 L 298.5 25 L 299.5 24 L 299.5 21 L 300.5 20 L 300.5 17 L 301.5 16 L 301.5 13 L 303 11.5 L 322 11.5 L 322.5 12 L 322.5 15 L 321.5 16 L 321.5 19 L 320.5 20 L 320.5 23 L 319.5 24 L 319.5 27 L 318.5 28 L 318.5 30 L 317.5 31 L 317.5 34 L 316.5 35 L 316.5 38 L 315.5 39 L 315.5 42 L 314.5 43 L 314.5 46 L 313.5 47 L 313.5 50 L 312.5 51 L 312.5 54 L 311.5 55 L 311.5 58 L 310.5 59 L 310.5 62 L 309.5 63 L 309.5 65 L 308.5 66 L 308.5 67 L 308 67.5 Z M 380 67.5 L 354 67.5 L 353.5 67 L 353.5 65 L 352.5 64 L 352.5 62 L 351.5 61 L 351.5 59 L 350.5 58 L 350.5 56 L 349.5 55 L 349.5 53 L 348.5 52 L 348.5 50 L 347.5 49 L 347.5 47 L 346.5 46 L 346.5 44 L 345.5 43 L 345.5 42 L 345 41.5 L 344.5 42 L 344.5 45 L 343.5 46 L 343.5 50 L 342.5 51 L 342.5 55 L 341.5 56 L 341.5 60 L 340.5 61 L 340.5 65 L 339.5 66 L 339.5 67 L 339 67.5 L 318 67.5 L 317.5 67 L 317.5 66 L 318.5 65 L 318.5 62 L 319.5 61 L 319.5 58 L 320.5 57 L 320.5 54 L 321.5 53 L 321.5 50 L 322.5 49 L 322.5 46 L 323.5 45 L 323.5 42 L 324.5 41 L 324.5 38 L 325.5 37 L 325.5 34 L 326.5 33 L 326.5 30 L 327.5 29 L 327.5 26 L 328.5 25 L 328.5 22 L 329.5 21 L 329.5 18 L 330.5 17 L 330.5 14 L 331.5 13 L 331.5 12 L 332 11.5 L 357 11.5 L 357.5 12 L 357.5 14 L 358.5 15 L 358.5 16 L 359.5 17 L 359.5 19 L 360.5 20 L 360.5 21 L 361.5 22 L 361.5 24 L 362.5 25 L 362.5 26 L 363.5 27 L 363.5 29 L 364.5 30 L 364.5 31 L 365.5 32 L 365.5 34 L 366.5 35 L 366.5 36 L 367 36.5 L 367.5 36 L 367.5 34 L 368.5 33 L 368.5 29 L 369.5 28 L 369.5 23 L 370.5 22 L 370.5 18 L 371.5 17 L 371.5 13 L 373 11.5 L 393 11.5 L 393.5 12 L 393.5 14 L 392.5 15 L 392.5 19 L 391.5 20 L 391.5 23 L 390.5 24 L 390.5 27 L 389.5 28 L 389.5 31 L 388.5 32 L 388.5 36 L 387.5 37 L 387.5 40 L 386.5 41 L 386.5 44 L 385.5 45 L 385.5 49 L 384.5 50 L 384.5 53 L 383.5 54 L 383.5 57 L 382.5 58 L 382.5 61 L 381.5 62 L 381.5 66 L 380 67.5 Z M 440 67.5 L 390 67.5 L 389.5 67 L 389.5 64 L 390.5 63 L 390.5 60 L 391.5 59 L 391.5 56 L 392.5 55 L 392.5 51 L 393.5 50 L 393.5 47 L 394.5 46 L 394.5 43 L 395.5 42 L 395.5 38 L 396.5 37 L 396.5 34 L 397.5 33 L 397.5 30 L 398.5 29 L 398.5 25 L 399.5 24 L 399.5 21 L 400.5 20 L 400.5 17 L 401.5 16 L 401.5 12 L 402 11.5 L 453 11.5 L 454 12.5 L 455 12.5 L 456 13.5 L 457 13.5 L 458.5 15 L 458.5 16 L 459.5 17 L 459.5 18 L 460.5 19 L 460.5 25 L 459.5 26 L 459.5 29 L 458.5 30 L 458.5 32 L 457.5 33 L 457.5 36 L 456.5 37 L 456.5 39 L 455.5 40 L 455.5 43 L 454.5 44 L 454.5 47 L 453.5 48 L 453.5 50 L 452.5 51 L 452.5 54 L 451.5 55 L 451.5 58 L 450.5 59 L 450.5 60 L 448.5 62 L 448.5 63 L 447 64.5 L 446 64.5 L 445 65.5 L 444 65.5 L 443 66.5 L 441 66.5 L 440 67.5 Z M 498 67.5 L 480 67.5 L 479 66.5 L 472 66.5 L 471 65.5 L 467 65.5 L 466 64.5 L 465 64.5 L 460.5 60 L 460.5 49 L 461.5 48 L 461.5 44 L 462.5 43 L 462.5 39 L 463.5 38 L 463.5 34 L 464.5 33 L 464.5 30 L 465.5 29 L 465.5 25 L 466.5 24 L 466.5 20 L 467.5 19 L 467.5 16 L 468.5 15 L 468.5 12 L 469 11.5 L 492 11.5 L 492.5 12 L 492.5 15 L 491.5 16 L 491.5 20 L 490.5 21 L 490.5 24 L 489.5 25 L 489.5 29 L 488.5 30 L 488.5 34 L 487.5 35 L 487.5 38 L 486.5 39 L 486.5 43 L 485.5 44 L 485.5 48 L 484.5 49 L 484.5 51 L 485.5 52 L 485.5 53 L 486 53.5 L 487 53.5 L 488 54.5 L 495 54.5 L 496 53.5 L 497 53.5 L 499.5 51 L 499.5 50 L 500.5 49 L 500.5 45 L 501.5 44 L 501.5 41 L 502.5 40 L 502.5 36 L 503.5 35 L 503.5 31 L 504.5 30 L 504.5 27 L 505.5 26 L 505.5 22 L 506.5 21 L 506.5 17 L 507.5 16 L 507.5 13 L 509 11.5 L 531 11.5 L 531.5 12 L 531.5 17 L 530.5 18 L 530.5 21 L 529.5 22 L 529.5 26 L 528.5 27 L 528.5 30 L 527.5 31 L 527.5 35 L 526.5 36 L 526.5 40 L 525.5 41 L 525.5 44 L 524.5 45 L 524.5 49 L 523.5 50 L 523.5 53 L 522.5 54 L 522.5 55 L 521.5 56 L 521.5 57 L 520.5 58 L 520.5 59 L 517 62.5 L 516 62.5 L 514 64.5 L 512 64.5 L 511 65.5 L 507 65.5 L 506 66.5 L 499 66.5 L 498 67.5 Z M 575 66.5 L 535 66.5 L 534 65.5 L 533 65.5 L 529.5 62 L 529.5 61 L 528.5 60 L 528.5 59 L 527.5 58 L 527.5 49 L 528 48.5 L 548 48.5 L 549.5 50 L 549.5 52 L 552 54.5 L 553 54.5 L 554 55.5 L 563 55.5 L 564 54.5 L 566 54.5 L 567.5 53 L 567.5 52 L 568.5 51 L 568.5 48 L 567.5 47 L 567.5 46 L 567 45.5 L 566 45.5 L 565 44.5 L 556 44.5 L 555 43.5 L 547 43.5 L 546 42.5 L 544 42.5 L 543 41.5 L 541 41.5 L 540 40.5 L 539 40.5 L 535.5 37 L 535.5 36 L 534.5 35 L 534.5 32 L 533.5 31 L 533.5 28 L 534.5 27 L 534.5 22 L 535.5 21 L 535.5 20 L 540 15.5 L 541 15.5 L 542 14.5 L 543 14.5 L 544 13.5 L 546 13.5 L 547 12.5 L 552 12.5 L 553 11.5 L 582 11.5 L 583 12.5 L 587 12.5 L 588 13.5 L 589 13.5 L 590 14.5 L 591 14.5 L 593.5 17 L 593.5 18 L 594.5 19 L 594.5 24 L 593.5 25 L 593.5 27 L 592 28.5 L 573 28.5 L 572.5 28 L 572.5 24 L 571 22.5 L 558 22.5 L 555.5 25 L 555.5 26 L 554.5 27 L 554.5 28 L 555.5 29 L 555.5 30 L 557 31.5 L 559 31.5 L 560 32.5 L 569 32.5 L 570 33.5 L 577 33.5 L 578 34.5 L 582 34.5 L 583 35.5 L 585 35.5 L 587 37.5 L 588 37.5 L 588.5 38 L 588.5 39 L 590.5 41 L 590.5 48 L 589.5 49 L 589.5 51 L 588.5 52 L 588.5 54 L 587.5 55 L 587.5 56 L 585.5 58 L 585.5 59 L 582 62.5 L 581 62.5 L 579 64.5 L 578 64.5 L 577 65.5 L 576 65.5 L 575 66.5 Z M 628 67.5 L 607 67.5 L 606.5 67 L 606.5 65 L 607.5 64 L 607.5 61 L 608.5 60 L 608.5 57 L 609.5 56 L 609.5 53 L 610.5 52 L 610.5 49 L 611.5 48 L 611.5 44 L 612.5 43 L 612.5 40 L 613.5 39 L 613.5 36 L 614.5 35 L 614.5 32 L 615.5 31 L 615.5 28 L 616.5 27 L 616.5 24 L 616 23.5 L 598 23.5 L 597.5 23 L 597.5 14 L 598.5 13 L 598.5 12 L 599 11.5 L 662 11.5 L 662.5 12 L 662.5 13 L 661.5 14 L 661.5 20 L 660.5 21 L 660.5 24 L 660 24.5 L 638 24.5 L 637.5 25 L 637.5 28 L 636.5 29 L 636.5 32 L 635.5 33 L 635.5 37 L 634.5 38 L 634.5 41 L 633.5 42 L 633.5 45 L 632.5 46 L 632.5 50 L 631.5 51 L 631.5 54 L 630.5 55 L 630.5 58 L 629.5 59 L 629.5 63 L 628.5 64 L 628.5 67 L 628 67.5 Z M 717 67.5 L 696 67.5 L 694.5 66 L 694.5 63 L 693.5 62 L 693.5 60 L 692.5 59 L 692.5 56 L 691.5 55 L 691.5 53 L 690.5 52 L 690.5 49 L 690 48.5 L 679 48.5 L 677.5 50 L 677.5 54 L 676.5 55 L 676.5 59 L 675.5 60 L 675.5 64 L 674.5 65 L 674.5 67 L 674 67.5 L 654 67.5 L 653.5 67 L 653.5 64 L 654.5 63 L 654.5 60 L 655.5 59 L 655.5 56 L 656.5 55 L 656.5 52 L 657.5 51 L 657.5 48 L 658.5 47 L 658.5 44 L 659.5 43 L 659.5 40 L 660.5 39 L 660.5 36 L 661.5 35 L 661.5 33 L 662.5 32 L 662.5 29 L 663.5 28 L 663.5 25 L 664.5 24 L 664.5 21 L 665.5 20 L 665.5 17 L 666.5 16 L 666.5 13 L 668 11.5 L 722 11.5 L 723 12.5 L 724 12.5 L 725.5 14 L 725.5 28 L 724.5 29 L 724.5 32 L 723.5 33 L 723.5 35 L 722.5 36 L 722.5 37 L 721.5 38 L 721.5 39 L 720.5 40 L 720.5 41 L 719 42.5 L 718 42.5 L 715 45.5 L 714 45.5 L 713 46.5 L 712 46.5 L 711.5 47 L 711.5 49 L 712.5 50 L 712.5 52 L 713.5 53 L 713.5 55 L 714.5 56 L 714.5 58 L 715.5 59 L 715.5 61 L 716.5 62 L 716.5 63 L 717.5 64 L 717.5 67 L 717 67.5 Z M 745 67.5 L 726 67.5 L 725.5 67 L 725.5 64 L 726.5 63 L 726.5 60 L 727.5 59 L 727.5 56 L 728.5 55 L 728.5 53 L 729.5 52 L 729.5 49 L 730.5 48 L 730.5 45 L 731.5 44 L 731.5 41 L 732.5 40 L 732.5 37 L 733.5 36 L 733.5 33 L 734.5 32 L 734.5 29 L 735.5 28 L 735.5 25 L 736.5 24 L 736.5 21 L 737.5 20 L 737.5 17 L 738.5 16 L 738.5 13 L 740 11.5 L 759 11.5 L 759.5 12 L 759.5 14 L 758.5 15 L 758.5 18 L 757.5 19 L 757.5 22 L 756.5 23 L 756.5 26 L 755.5 27 L 755.5 30 L 754.5 31 L 754.5 34 L 753.5 35 L 753.5 38 L 752.5 39 L 752.5 41 L 751.5 42 L 751.5 45 L 750.5 46 L 750.5 49 L 749.5 50 L 749.5 53 L 748.5 54 L 748.5 57 L 747.5 58 L 747.5 61 L 746.5 62 L 746.5 65 L 745.5 66 L 745.5 67 L 745 67.5 Z M 813 67.5 L 793 67.5 L 792.5 67 L 792.5 62 L 793.5 61 L 793.5 58 L 793 57.5 L 779 57.5 L 777.5 59 L 777.5 60 L 776.5 61 L 776.5 63 L 775.5 64 L 775.5 65 L 774.5 66 L 774.5 67 L 774 67.5 L 753 67.5 L 752.5 67 L 753.5 66 L 753.5 65 L 754.5 64 L 754.5 63 L 755.5 62 L 755.5 61 L 756.5 60 L 756.5 59 L 757.5 58 L 757.5 57 L 758.5 56 L 758.5 55 L 759.5 54 L 759.5 53 L 760.5 52 L 760.5 51 L 761.5 50 L 761.5 49 L 762.5 48 L 762.5 47 L 763.5 46 L 763.5 45 L 764.5 44 L 764.5 43 L 765.5 42 L 765.5 41 L 766.5 40 L 766.5 39 L 767.5 38 L 767.5 37 L 768.5 36 L 768.5 35 L 769.5 34 L 769.5 33 L 770.5 32 L 770.5 31 L 771.5 30 L 771.5 29 L 772.5 28 L 772.5 27 L 773.5 26 L 773.5 25 L 774.5 24 L 774.5 23 L 775.5 22 L 775.5 21 L 776.5 20 L 776.5 19 L 777.5 18 L 777.5 17 L 778.5 16 L 778.5 15 L 779.5 14 L 779.5 13 L 781 11.5 L 815 11.5 L 815.5 12 L 815.5 21 L 814.5 22 L 814.5 62 L 813.5 63 L 813.5 67 L 813 67.5 Z M 868 67.5 L 832 67.5 L 831 66.5 L 829 66.5 L 828 65.5 L 827 65.5 L 824.5 63 L 824.5 62 L 822.5 60 L 822.5 57 L 821.5 56 L 821.5 50 L 823 48.5 L 843 48.5 L 843.5 49 L 843.5 52 L 847 55.5 L 859 55.5 L 862.5 52 L 862.5 47 L 861 45.5 L 858 45.5 L 857 44.5 L 846 44.5 L 845 43.5 L 840 43.5 L 839 42.5 L 837 42.5 L 836 41.5 L 835 41.5 L 834 40.5 L 833 40.5 L 829.5 37 L 829.5 36 L 828.5 35 L 828.5 24 L 829.5 23 L 829.5 21 L 830.5 20 L 830.5 19 L 833 16.5 L 834 16.5 L 835 15.5 L 836 15.5 L 837 14.5 L 838 14.5 L 839 13.5 L 842 13.5 L 843 12.5 L 850 12.5 L 851 11.5 L 873 11.5 L 874 12.5 L 880 12.5 L 881 13.5 L 883 13.5 L 884 14.5 L 885 14.5 L 887.5 17 L 887.5 18 L 888.5 19 L 888.5 26 L 887.5 27 L 887.5 28 L 887 28.5 L 867 28.5 L 866.5 28 L 866.5 26 L 867.5 25 L 865 22.5 L 854 22.5 L 853 23.5 L 852 23.5 L 849.5 26 L 849.5 30 L 851 31.5 L 852 31.5 L 853 32.5 L 857 32.5 L 858 33.5 L 870 33.5 L 871 34.5 L 875 34.5 L 876 35.5 L 878 35.5 L 879 36.5 L 880 36.5 L 881 37.5 L 882 37.5 L 883.5 39 L 883.5 40 L 884.5 41 L 884.5 50 L 883.5 51 L 883.5 53 L 882.5 54 L 882.5 55 L 881.5 56 L 881.5 57 L 874 64.5 L 873 64.5 L 872 65.5 L 871 65.5 L 870 66.5 L 869 66.5 L 868 67.5 Z M 942 203.5 L 938 203.5 L 936.5 202 L 936.5 201 L 935.5 200 L 935.5 199 L 936.5 198 L 936.5 195 L 937.5 194 L 937.5 191 L 938.5 190 L 938.5 186 L 939.5 185 L 939.5 182 L 940.5 181 L 940.5 178 L 941.5 177 L 941.5 174 L 942.5 173 L 942.5 170 L 943.5 169 L 943.5 165 L 944.5 164 L 944.5 161 L 945.5 160 L 945.5 157 L 946.5 156 L 946.5 153 L 947.5 152 L 947.5 149 L 948.5 148 L 948.5 145 L 949.5 144 L 949.5 140 L 950.5 139 L 950.5 136 L 951.5 135 L 951.5 132 L 952.5 131 L 952.5 128 L 953.5 127 L 953.5 124 L 954.5 123 L 954.5 119 L 955.5 118 L 955.5 115 L 956.5 114 L 956.5 111 L 957.5 110 L 957.5 107 L 958.5 106 L 958.5 103 L 959.5 102 L 959.5 99 L 960.5 98 L 960.5 94 L 961.5 93 L 961.5 90 L 962.5 89 L 962.5 86 L 963.5 85 L 963.5 82 L 964.5 81 L 964.5 78 L 965.5 77 L 965.5 73 L 966.5 72 L 966.5 69 L 967.5 68 L 967.5 65 L 968.5 64 L 968.5 61 L 969.5 60 L 969.5 57 L 970.5 56 L 970.5 53 L 971.5 52 L 971.5 48 L 972.5 47 L 972.5 44 L 973.5 43 L 973.5 40 L 974.5 39 L 974.5 31 L 973.5 30 L 973.5 29 L 969 24.5 L 966 24.5 L 965 23.5 L 912 23.5 L 910.5 22 L 910.5 18 L 913 15.5 L 969 15.5 L 970 16.5 L 972 16.5 L 973 17.5 L 974 17.5 L 975 18.5 L 976 18.5 L 982.5 25 L 982.5 27 L 983.5 28 L 983.5 38 L 982.5 39 L 982.5 41 L 981.5 42 L 981.5 46 L 980.5 47 L 980.5 50 L 979.5 51 L 979.5 54 L 978.5 55 L 978.5 58 L 977.5 59 L 977.5 62 L 976.5 63 L 976.5 66 L 975.5 67 L 975.5 71 L 974.5 72 L 974.5 75 L 973.5 76 L 973.5 79 L 972.5 80 L 972.5 83 L 971.5 84 L 971.5 87 L 970.5 88 L 970.5 92 L 969.5 93 L 969.5 96 L 968.5 97 L 968.5 100 L 967.5 101 L 967.5 104 L 966.5 105 L 966.5 108 L 965.5 109 L 965.5 112 L 964.5 113 L 964.5 117 L 963.5 118 L 963.5 121 L 962.5 122 L 962.5 125 L 961.5 126 L 961.5 129 L 960.5 130 L 960.5 133 L 959.5 134 L 959.5 137 L 958.5 138 L 958.5 142 L 957.5 143 L 957.5 146 L 956.5 147 L 956.5 150 L 955.5 151 L 955.5 154 L 954.5 155 L 954.5 158 L 953.5 159 L 953.5 162 L 952.5 163 L 952.5 167 L 951.5 168 L 951.5 171 L 950.5 172 L 950.5 175 L 949.5 176 L 949.5 179 L 948.5 180 L 948.5 183 L 947.5 184 L 947.5 187 L 946.5 188 L 946.5 192 L 945.5 193 L 945.5 196 L 944.5 197 L 944.5 200 L 943.5 201 L 943.5 202 L 942 203.5 Z M 428.5 54 L 429 53.5 L 431 53.5 L 433.5 51 L 433.5 49 L 434.5 48 L 434.5 45 L 435.5 44 L 435.5 41 L 436.5 40 L 436.5 37 L 437.5 36 L 437.5 32 L 438.5 31 L 438.5 26 L 436 23.5 L 420 23.5 L 419.5 24 L 419.5 27 L 418.5 28 L 418.5 31 L 417.5 32 L 417.5 35 L 416.5 36 L 416.5 39 L 415.5 40 L 415.5 43 L 414.5 44 L 414.5 47 L 413.5 48 L 413.5 51 L 412.5 52 L 412.5 53 L 414 54.5 L 428 54.5 L 428.5 54 Z M 704.5 34 L 707.5 31 L 707.5 26 L 707 25.5 L 684 25.5 L 683.5 26 L 683.5 28 L 682.5 29 L 682.5 34 L 683 34.5 L 704 34.5 L 704.5 34 Z M 793.5 43 L 794.5 42 L 794.5 28 L 794 27.5 L 792.5 29 L 792.5 30 L 791.5 31 L 791.5 32 L 790.5 33 L 790.5 34 L 789.5 35 L 789.5 36 L 788.5 37 L 788.5 38 L 787.5 39 L 787.5 40 L 786.5 41 L 786.5 43 L 787 43.5 L 793 43.5 L 793.5 43 Z M 865 310.5 L 57 310.5 L 56 309.5 L 52 309.5 L 51 308.5 L 48 308.5 L 47 307.5 L 46 307.5 L 45 306.5 L 43 306.5 L 42 305.5 L 41 305.5 L 39 303.5 L 38 303.5 L 34 299.5 L 33 299.5 L 31.5 298 L 31.5 297 L 28.5 294 L 28.5 293 L 26.5 291 L 26.5 289 L 25.5 288 L 25.5 286 L 24.5 285 L 24.5 283 L 23.5 282 L 23.5 265 L 24.5 264 L 24.5 262 L 25.5 261 L 25.5 258 L 26.5 257 L 26.5 255 L 27.5 254 L 27.5 251 L 28.5 250 L 28.5 248 L 29.5 247 L 29.5 244 L 30.5 243 L 30.5 241 L 31.5 240 L 31.5 237 L 32.5 236 L 32.5 234 L 33.5 233 L 33.5 230 L 34.5 229 L 34.5 227 L 35.5 226 L 35.5 223 L 36.5 222 L 36.5 220 L 37.5 219 L 37.5 216 L 38.5 215 L 38.5 213 L 39.5 212 L 39.5 209 L 40.5 208 L 40.5 206 L 41.5 205 L 41.5 203 L 42.5 202 L 42.5 199 L 43.5 198 L 43.5 196 L 44.5 195 L 44.5 192 L 45.5 191 L 45.5 189 L 46.5 188 L 46.5 185 L 47.5 184 L 47.5 182 L 48.5 181 L 48.5 178 L 49.5 177 L 49.5 175 L 50.5 174 L 50.5 171 L 51.5 170 L 51.5 168 L 52.5 167 L 52.5 164 L 53.5 163 L 53.5 161 L 54.5 160 L 54.5 157 L 55.5 156 L 55.5 154 L 56.5 153 L 56.5 150 L 57.5 149 L 57.5 147 L 58.5 146 L 58.5 143 L 59.5 142 L 59.5 140 L 60.5 139 L 60.5 136 L 61.5 135 L 61.5 133 L 62.5 132 L 62.5 129 L 63.5 128 L 63.5 126 L 64.5 125 L 64.5 122 L 65.5 121 L 65.5 119 L 66.5 118 L 66.5 116 L 67.5 115 L 67.5 114 L 69.5 112 L 69.5 111 L 71.5 109 L 71.5 108 L 82 97.5 L 83 97.5 L 86 94.5 L 87 94.5 L 88 93.5 L 89 93.5 L 91 91.5 L 92 91.5 L 93 90.5 L 94 90.5 L 95 89.5 L 97 89.5 L 98 88.5 L 99 88.5 L 100 87.5 L 102 87.5 L 103 86.5 L 106 86.5 L 107 85.5 L 110 85.5 L 111 84.5 L 213 84.5 L 214 85.5 L 216 85.5 L 217 86.5 L 219 86.5 L 220 87.5 L 221 87.5 L 222 88.5 L 223 88.5 L 224 89.5 L 225 89.5 L 226 90.5 L 227 90.5 L 235.5 99 L 235.5 100 L 237.5 102 L 237.5 103 L 238.5 104 L 238.5 105 L 239.5 106 L 239.5 108 L 240.5 109 L 240.5 115 L 241.5 116 L 241.5 119 L 240.5 120 L 240.5 125 L 239.5 126 L 239.5 130 L 238.5 131 L 238.5 135 L 237.5 136 L 237.5 140 L 236.5 141 L 236.5 144 L 235.5 145 L 235.5 149 L 235 149.5 L 170 149.5 L 169.5 149 L 169.5 148 L 170.5 147 L 170.5 144 L 171.5 143 L 171.5 139 L 172.5 138 L 172.5 135 L 173.5 134 L 173.5 130 L 174.5 129 L 174.5 126 L 173.5 125 L 173.5 124 L 172.5 123 L 172.5 122 L 172 121.5 L 171 121.5 L 170 120.5 L 165 120.5 L 164 119.5 L 145 119.5 L 144 120.5 L 136 120.5 L 130.5 126 L 130.5 127 L 129.5 128 L 129.5 129 L 128.5 130 L 128.5 131 L 127.5 132 L 127.5 133 L 126.5 134 L 126.5 136 L 125.5 137 L 125.5 139 L 124.5 140 L 124.5 143 L 123.5 144 L 123.5 146 L 122.5 147 L 122.5 149 L 121.5 150 L 121.5 153 L 120.5 154 L 120.5 156 L 119.5 157 L 119.5 159 L 118.5 160 L 118.5 163 L 117.5 164 L 117.5 166 L 116.5 167 L 116.5 170 L 115.5 171 L 115.5 173 L 114.5 174 L 114.5 177 L 113.5 178 L 113.5 180 L 112.5 181 L 112.5 184 L 111.5 185 L 111.5 187 L 110.5 188 L 110.5 191 L 109.5 192 L 109.5 194 L 108.5 195 L 108.5 198 L 107.5 199 L 107.5 201 L 106.5 202 L 106.5 205 L 105.5 206 L 105.5 209 L 104.5 210 L 104.5 212 L 103.5 213 L 103.5 216 L 102.5 217 L 102.5 219 L 101.5 220 L 101.5 223 L 100.5 224 L 100.5 226 L 99.5 227 L 99.5 230 L 98.5 231 L 98.5 234 L 97.5 235 L 97.5 237 L 96.5 238 L 96.5 241 L 95.5 242 L 95.5 244 L 94.5 245 L 94.5 248 L 93.5 249 L 93.5 251 L 92.5 252 L 92.5 254 L 91.5 255 L 91.5 259 L 92.5 260 L 92.5 262 L 95 264.5 L 403 264.5 L 404 263.5 L 713 263.5 L 714 262.5 L 927 262.5 L 927.5 263 L 927.5 264 L 926.5 265 L 926.5 266 L 925.5 267 L 925.5 268 L 924.5 269 L 924.5 270 L 923.5 271 L 923.5 272 L 922.5 273 L 922.5 274 L 921.5 275 L 921.5 276 L 919.5 278 L 919.5 279 L 917.5 281 L 917.5 282 L 913.5 286 L 913.5 287 L 906 294.5 L 905 294.5 L 901 298.5 L 900 298.5 L 898 300.5 L 897 300.5 L 896 301.5 L 895 301.5 L 894 302.5 L 893 302.5 L 892 303.5 L 891 303.5 L 890 304.5 L 889 304.5 L 888 305.5 L 886 305.5 L 885 306.5 L 883 306.5 L 882 307.5 L 880 307.5 L 879 308.5 L 875 308.5 L 874 309.5 L 866 309.5 L 865 310.5 Z M 379 251.5 L 315 251.5 L 314.5 251 L 314.5 249 L 315.5 248 L 315.5 237 L 316.5 236 L 316.5 225 L 317.5 224 L 317 223.5 L 274 223.5 L 273.5 224 L 273.5 225 L 272.5 226 L 272.5 227 L 271.5 228 L 271.5 230 L 270.5 231 L 270.5 232 L 269.5 233 L 269.5 234 L 268.5 235 L 268.5 237 L 267.5 238 L 267.5 239 L 266.5 240 L 266.5 241 L 265.5 242 L 265.5 244 L 264.5 245 L 264.5 246 L 263.5 247 L 263.5 248 L 262.5 249 L 262.5 251 L 262 251.5 L 197 251.5 L 196.5 251 L 197.5 250 L 197.5 249 L 198.5 248 L 198.5 247 L 199.5 246 L 199.5 245 L 200.5 244 L 200.5 243 L 201.5 242 L 201.5 241 L 202.5 240 L 202.5 239 L 203.5 238 L 203.5 237 L 204.5 236 L 204.5 235 L 205.5 234 L 205.5 233 L 206.5 232 L 206.5 231 L 207.5 230 L 207.5 229 L 208.5 228 L 208.5 227 L 210.5 225 L 210.5 224 L 211.5 223 L 211.5 222 L 212.5 221 L 212.5 220 L 213.5 219 L 213.5 218 L 214.5 217 L 214.5 216 L 215.5 215 L 215.5 214 L 216.5 213 L 216.5 212 L 217.5 211 L 217.5 210 L 218.5 209 L 218.5 208 L 219.5 207 L 219.5 206 L 220.5 205 L 220.5 204 L 221.5 203 L 221.5 202 L 222.5 201 L 222.5 200 L 223.5 199 L 223.5 198 L 224.5 197 L 224.5 196 L 225.5 195 L 225.5 194 L 226.5 193 L 226.5 192 L 227.5 191 L 227.5 190 L 228.5 189 L 228.5 188 L 229.5 187 L 229.5 186 L 230.5 185 L 230.5 184 L 231.5 183 L 231.5 182 L 232.5 181 L 232.5 180 L 233.5 179 L 233.5 178 L 234.5 177 L 234.5 176 L 235.5 175 L 235.5 174 L 236.5 173 L 236.5 172 L 237.5 171 L 237.5 170 L 238.5 169 L 238.5 168 L 239.5 167 L 239.5 166 L 240.5 165 L 240.5 164 L 241.5 163 L 241.5 162 L 242.5 161 L 242.5 160 L 243.5 159 L 243.5 158 L 244.5 157 L 244.5 156 L 245.5 155 L 245.5 154 L 246.5 153 L 246.5 152 L 247.5 151 L 247.5 150 L 248.5 149 L 248.5 148 L 249.5 147 L 249.5 146 L 251.5 144 L 251.5 143 L 252.5 142 L 252.5 141 L 253.5 140 L 253.5 139 L 254.5 138 L 254.5 137 L 255.5 136 L 255.5 135 L 256.5 134 L 256.5 133 L 257.5 132 L 257.5 131 L 258.5 130 L 258.5 129 L 259.5 128 L 259.5 127 L 260.5 126 L 260.5 125 L 261.5 124 L 261.5 123 L 262.5 122 L 262.5 121 L 263.5 120 L 263.5 119 L 264.5 118 L 264.5 117 L 265.5 116 L 265.5 115 L 266.5 114 L 266.5 113 L 267.5 112 L 267.5 111 L 268.5 110 L 268.5 109 L 269.5 108 L 269.5 107 L 270.5 106 L 270.5 105 L 271.5 104 L 271.5 103 L 272.5 102 L 272.5 101 L 273.5 100 L 273.5 99 L 274.5 98 L 274.5 97 L 275.5 96 L 275.5 95 L 276.5 94 L 276.5 93 L 277.5 92 L 277.5 91 L 278.5 90 L 278.5 89 L 279.5 88 L 279.5 87 L 280.5 86 L 280.5 85 L 281 84.5 L 383 84.5 L 383.5 85 L 383.5 108 L 382.5 109 L 382.5 150 L 381.5 151 L 381.5 191 L 380.5 192 L 380.5 232 L 379.5 233 L 379.5 251 L 379 251.5 Z M 576 251.5 L 389 251.5 L 388.5 251 L 388.5 250 L 389.5 249 L 389.5 246 L 390.5 245 L 390.5 242 L 391.5 241 L 391.5 239 L 392.5 238 L 392.5 235 L 393.5 234 L 393.5 231 L 394.5 230 L 394.5 227 L 395.5 226 L 395.5 224 L 396.5 223 L 396.5 220 L 397.5 219 L 397.5 216 L 398.5 215 L 398.5 212 L 402 208.5 L 403 208.5 L 406 205.5 L 407 205.5 L 410 202.5 L 411 202.5 L 414 199.5 L 415 199.5 L 417 197.5 L 418 197.5 L 421 194.5 L 422 194.5 L 425 191.5 L 426 191.5 L 429 188.5 L 430 188.5 L 432 186.5 L 433 186.5 L 436 183.5 L 437 183.5 L 440 180.5 L 441 180.5 L 444 177.5 L 445 177.5 L 448 174.5 L 449 174.5 L 451 172.5 L 452 172.5 L 455 169.5 L 456 169.5 L 459 166.5 L 460 166.5 L 463 163.5 L 464 163.5 L 466 161.5 L 467 161.5 L 470 158.5 L 471 158.5 L 474 155.5 L 475 155.5 L 478 152.5 L 479 152.5 L 481 150.5 L 482 150.5 L 485 147.5 L 486 147.5 L 489 144.5 L 490 144.5 L 493 141.5 L 494 141.5 L 496 139.5 L 497 139.5 L 500 136.5 L 501 136.5 L 504 133.5 L 505 133.5 L 508 130.5 L 509 130.5 L 511 128.5 L 512 128.5 L 515 125.5 L 516 125.5 L 519 122.5 L 520 122.5 L 521.5 121 L 521 120.5 L 432 120.5 L 431.5 120 L 432.5 119 L 432.5 116 L 433.5 115 L 433.5 112 L 434.5 111 L 434.5 108 L 435.5 107 L 435.5 104 L 436.5 103 L 436.5 100 L 437.5 99 L 437.5 96 L 438.5 95 L 438.5 92 L 439.5 91 L 439.5 88 L 440.5 87 L 440.5 85 L 441 84.5 L 619 84.5 L 619.5 85 L 619.5 89 L 618.5 90 L 618.5 94 L 617.5 95 L 617.5 98 L 616.5 99 L 616.5 103 L 615.5 104 L 615.5 108 L 614.5 109 L 614.5 113 L 613.5 114 L 613.5 118 L 612.5 119 L 612.5 121 L 610 123.5 L 609 123.5 L 607 125.5 L 606 125.5 L 604 127.5 L 603 127.5 L 601 129.5 L 600 129.5 L 597 132.5 L 596 132.5 L 594 134.5 L 593 134.5 L 591 136.5 L 590 136.5 L 588 138.5 L 587 138.5 L 584 141.5 L 583 141.5 L 581 143.5 L 580 143.5 L 578 145.5 L 577 145.5 L 575 147.5 L 574 147.5 L 572 149.5 L 571 149.5 L 568 152.5 L 567 152.5 L 565 154.5 L 564 154.5 L 562 156.5 L 561 156.5 L 559 158.5 L 558 158.5 L 556 160.5 L 555 160.5 L 552 163.5 L 551 163.5 L 549 165.5 L 548 165.5 L 546 167.5 L 545 167.5 L 543 169.5 L 542 169.5 L 539 172.5 L 538 172.5 L 536 174.5 L 535 174.5 L 533 176.5 L 532 176.5 L 530 178.5 L 529 178.5 L 527 180.5 L 526 180.5 L 523 183.5 L 522 183.5 L 520 185.5 L 519 185.5 L 517 187.5 L 516 187.5 L 514 189.5 L 513 189.5 L 510 192.5 L 509 192.5 L 507 194.5 L 506 194.5 L 504 196.5 L 503 196.5 L 501 198.5 L 500 198.5 L 498 200.5 L 497 200.5 L 494 203.5 L 493 203.5 L 491 205.5 L 490 205.5 L 488 207.5 L 487 207.5 L 485 209.5 L 484 209.5 L 481.5 212 L 482 212.5 L 586 212.5 L 586.5 213 L 586.5 214 L 585.5 215 L 585.5 218 L 584.5 219 L 584.5 222 L 583.5 223 L 583.5 225 L 582.5 226 L 582.5 229 L 581.5 230 L 581.5 233 L 580.5 234 L 580.5 237 L 579.5 238 L 579.5 240 L 578.5 241 L 578.5 244 L 577.5 245 L 577.5 248 L 576.5 249 L 576.5 251 L 576 251.5 Z M 753 251.5 L 595 251.5 L 594.5 251 L 594.5 249 L 595.5 248 L 595.5 245 L 596.5 244 L 596.5 241 L 597.5 240 L 597.5 237 L 598.5 236 L 598.5 234 L 599.5 233 L 599.5 230 L 600.5 229 L 600.5 226 L 601.5 225 L 601.5 222 L 602.5 221 L 602.5 218 L 603.5 217 L 603.5 214 L 604.5 213 L 604.5 210 L 605.5 209 L 605.5 206 L 606.5 205 L 606.5 203 L 607.5 202 L 607.5 199 L 608.5 198 L 608.5 195 L 609.5 194 L 609.5 191 L 610.5 190 L 610.5 187 L 611.5 186 L 611.5 183 L 612.5 182 L 612.5 179 L 613.5 178 L 613.5 175 L 614.5 174 L 614.5 171 L 615.5 170 L 615.5 168 L 616.5 167 L 616.5 164 L 617.5 163 L 617.5 160 L 618.5 159 L 618.5 156 L 619.5 155 L 619.5 152 L 620.5 151 L 620.5 148 L 621.5 147 L 621.5 144 L 622.5 143 L 622.5 140 L 623.5 139 L 623.5 137 L 624.5 136 L 624.5 133 L 625.5 132 L 625.5 129 L 626.5 128 L 626.5 125 L 627.5 124 L 627.5 121 L 628.5 120 L 628.5 117 L 629.5 116 L 629.5 113 L 630.5 112 L 630.5 109 L 631.5 108 L 631.5 105 L 632.5 104 L 632.5 102 L 633.5 101 L 633.5 98 L 634.5 97 L 634.5 94 L 635.5 93 L 635.5 90 L 636.5 89 L 636.5 86 L 638 84.5 L 796 84.5 L 796.5 85 L 796.5 86 L 795.5 87 L 795.5 90 L 794.5 91 L 794.5 94 L 793.5 95 L 793.5 99 L 792.5 100 L 792.5 103 L 791.5 104 L 791.5 107 L 790.5 108 L 790.5 112 L 789.5 113 L 789.5 116 L 788.5 117 L 788.5 120 L 788 120.5 L 691 120.5 L 690.5 121 L 690.5 125 L 689.5 126 L 689.5 129 L 688.5 130 L 688.5 133 L 687.5 134 L 687.5 138 L 686.5 139 L 686.5 142 L 687 142.5 L 774 142.5 L 774.5 143 L 774.5 144 L 773.5 145 L 773.5 148 L 772.5 149 L 772.5 152 L 771.5 153 L 771.5 156 L 770.5 157 L 770.5 160 L 769.5 161 L 769.5 164 L 768.5 165 L 768.5 168 L 767.5 169 L 767.5 172 L 766.5 173 L 766.5 176 L 765.5 177 L 765.5 180 L 764.5 181 L 764.5 182 L 763 183.5 L 676 183.5 L 675.5 184 L 675.5 186 L 674.5 187 L 674.5 189 L 673.5 190 L 673.5 192 L 672.5 193 L 672.5 196 L 671.5 197 L 671.5 199 L 670.5 200 L 670.5 202 L 669.5 203 L 669.5 206 L 668.5 207 L 668.5 209 L 667.5 210 L 667.5 212 L 668 212.5 L 763 212.5 L 763.5 213 L 763.5 214 L 762.5 215 L 762.5 218 L 761.5 219 L 761.5 222 L 760.5 223 L 760.5 226 L 759.5 227 L 759.5 230 L 758.5 231 L 758.5 234 L 757.5 235 L 757.5 238 L 756.5 239 L 756.5 242 L 755.5 243 L 755.5 246 L 754.5 247 L 754.5 250 L 753 251.5 Z M 930 251.5 L 766 251.5 L 765.5 251 L 765.5 250 L 766.5 249 L 766.5 246 L 767.5 245 L 767.5 242 L 768.5 241 L 768.5 239 L 769.5 238 L 769.5 235 L 770.5 234 L 770.5 231 L 771.5 230 L 771.5 227 L 772.5 226 L 772.5 224 L 773.5 223 L 773.5 220 L 774.5 219 L 774.5 216 L 775.5 215 L 775.5 212 L 776.5 211 L 776.5 209 L 777.5 208 L 777.5 205 L 778.5 204 L 778.5 201 L 779.5 200 L 779.5 197 L 780.5 196 L 780.5 193 L 781.5 192 L 781.5 190 L 782.5 189 L 782.5 186 L 783.5 185 L 783.5 182 L 784.5 181 L 784.5 178 L 785.5 177 L 785.5 175 L 786.5 174 L 786.5 171 L 787.5 170 L 787.5 167 L 788.5 166 L 788.5 163 L 789.5 162 L 789.5 160 L 790.5 159 L 790.5 156 L 791.5 155 L 791.5 152 L 792.5 151 L 792.5 148 L 793.5 147 L 793.5 144 L 794.5 143 L 794.5 141 L 795.5 140 L 795.5 137 L 796.5 136 L 796.5 133 L 797.5 132 L 797.5 129 L 798.5 128 L 798.5 126 L 799.5 125 L 799.5 122 L 800.5 121 L 800.5 118 L 801.5 117 L 801.5 114 L 802.5 113 L 802.5 111 L 803.5 110 L 803.5 107 L 804.5 106 L 804.5 103 L 805.5 102 L 805.5 99 L 806.5 98 L 806.5 95 L 807.5 94 L 807.5 92 L 808.5 91 L 808.5 88 L 809.5 87 L 809.5 85 L 810 84.5 L 873 84.5 L 873.5 85 L 873.5 87 L 872.5 88 L 872.5 91 L 871.5 92 L 871.5 95 L 870.5 96 L 870.5 99 L 869.5 100 L 869.5 103 L 868.5 104 L 868.5 107 L 867.5 108 L 867.5 111 L 866.5 112 L 866.5 115 L 865.5 116 L 865.5 119 L 864.5 120 L 864.5 123 L 863.5 124 L 863.5 127 L 862.5 128 L 862.5 131 L 861.5 132 L 861.5 135 L 860.5 136 L 860.5 139 L 859.5 140 L 859.5 143 L 858.5 144 L 858.5 147 L 857.5 148 L 857.5 151 L 856.5 152 L 856.5 156 L 855.5 157 L 855.5 160 L 854.5 161 L 854.5 164 L 853.5 165 L 853.5 168 L 852.5 169 L 852.5 172 L 851.5 173 L 851.5 176 L 850.5 177 L 850.5 180 L 849.5 181 L 849.5 184 L 848.5 185 L 848.5 188 L 847.5 189 L 847.5 192 L 846.5 193 L 846.5 196 L 845.5 197 L 845.5 200 L 844.5 201 L 844.5 204 L 843.5 205 L 843.5 208 L 842.5 209 L 842.5 211 L 843 211.5 L 939 211.5 L 939.5 212 L 939.5 215 L 938.5 216 L 938.5 219 L 937.5 220 L 937.5 223 L 936.5 224 L 936.5 227 L 935.5 228 L 935.5 231 L 934.5 232 L 934.5 235 L 933.5 236 L 933.5 239 L 932.5 240 L 932.5 243 L 931.5 244 L 931.5 248 L 930.5 249 L 930.5 251 L 930 251.5 Z M 319.5 179 L 319.5 134 L 319 133.5 L 317.5 135 L 317.5 136 L 316.5 137 L 316.5 138 L 315.5 139 L 315.5 140 L 314.5 141 L 314.5 142 L 313.5 143 L 313.5 144 L 312.5 145 L 312.5 146 L 311.5 147 L 311.5 148 L 310.5 149 L 310.5 150 L 309.5 151 L 309.5 152 L 308.5 153 L 308.5 154 L 307.5 155 L 307.5 156 L 306.5 157 L 306.5 159 L 305.5 160 L 305.5 161 L 304.5 162 L 304.5 163 L 303.5 164 L 303.5 165 L 302.5 166 L 302.5 167 L 301.5 168 L 301.5 169 L 300.5 170 L 300.5 171 L 299.5 172 L 299.5 173 L 298.5 174 L 298.5 175 L 297.5 176 L 297.5 177 L 296.5 178 L 296.5 179 L 297 179.5 L 319 179.5 L 319.5 179 Z M 961 302.5 L 954 302.5 L 953 301.5 L 951 301.5 L 950 300.5 L 949 300.5 L 942.5 294 L 942.5 293 L 941.5 292 L 941.5 291 L 940.5 290 L 940.5 280 L 941.5 279 L 941.5 278 L 942.5 277 L 942.5 276 L 943.5 275 L 943.5 274 L 946 271.5 L 947 271.5 L 949 269.5 L 950 269.5 L 951 268.5 L 952 268.5 L 953 267.5 L 962 267.5 L 963 268.5 L 965 268.5 L 966 269.5 L 967 269.5 L 972.5 275 L 972.5 276 L 973.5 277 L 973.5 278 L 974.5 279 L 974.5 281 L 975.5 282 L 975.5 288 L 974.5 289 L 974.5 291 L 973.5 292 L 973.5 293 L 972.5 294 L 972.5 295 L 968 299.5 L 967 299.5 L 966 300.5 L 965 300.5 L 964 301.5 L 962 301.5 L 961 302.5 Z M 961.5 298 L 962 297.5 L 963 297.5 L 964 296.5 L 965 296.5 L 969.5 292 L 969.5 291 L 970.5 290 L 970.5 288 L 971.5 287 L 971.5 283 L 970.5 282 L 970.5 280 L 969.5 279 L 969.5 278 L 967.5 276 L 967.5 275 L 967 274.5 L 966 274.5 L 964 272.5 L 962 272.5 L 961 271.5 L 954 271.5 L 953 272.5 L 952 272.5 L 951 273.5 L 950 273.5 L 946.5 277 L 946.5 278 L 945.5 279 L 945.5 280 L 944.5 281 L 944.5 289 L 945.5 290 L 945.5 291 L 946.5 292 L 946.5 293 L 949 295.5 L 950 295.5 L 952 297.5 L 954 297.5 L 955 298.5 L 961 298.5 L 961.5 298 Z M 966 293.5 L 961 293.5 L 960.5 293 L 960.5 291 L 958.5 289 L 958.5 288 L 958 287.5 L 957 287.5 L 956 286.5 L 955.5 287 L 955.5 293 L 955 293.5 L 950 293.5 L 949.5 293 L 949.5 276 L 950 275.5 L 961 275.5 L 962 276.5 L 963 276.5 L 963.5 277 L 963.5 278 L 964.5 279 L 964.5 282 L 963.5 283 L 963.5 284 L 963 284.5 L 962 284.5 L 961.5 285 L 963.5 287 L 963.5 288 L 964.5 289 L 964.5 290 L 965.5 291 L 965.5 292 L 966.5 293 L 966 293.5 Z" fill="#2f2f2f" fill-rule="evenodd"/></svg>